<?xml version="1.0" standalone="no"?>
<!DOCTYPE svg PUBLIC "-//W3C//DTD SVG 20010904//EN"
 "http://www.w3.org/TR/2001/REC-SVG-20010904/DTD/svg10.dtd">
<svg version="1.0" xmlns="http://www.w3.org/2000/svg"
 width="512.000000pt" height="512.000000pt" viewBox="0 0 512.000000 512.000000"
 preserveAspectRatio="xMidYMid meet">

<g transform="translate(0.000000,512.000000) scale(0.100000,-0.100000)"
fill="#000000" stroke="none">
<path d="M2113 4865 c-37 -16 -33 0 -103 -329 -28 -131 -59 -255 -70 -275 -23
-46 -75 -95 -120 -114 -19 -8 -93 -49 -164 -92 -147 -87 -189 -105 -255 -105
-68 0 -144 21 -364 99 -215 77 -241 80 -278 32 -29 -37 -114 -174 -204 -331
-42 -74 -83 -142 -90 -150 -7 -8 -38 -60 -70 -115 -56 -97 -57 -101 -53 -163
3 -54 8 -68 29 -84 58 -46 240 -210 314 -283 118 -116 115 -107 115 -400 0
-293 3 -284 -115 -400 -74 -73 -256 -237 -314 -283 -21 -16 -26 -30 -29 -84
-4 -62 -3 -66 53 -163 32 -55 63 -107 70 -115 7 -8 48 -76 90 -150 90 -157
175 -294 204 -331 37 -48 63 -45 278 32 220 78 296 99 364 99 66 0 108 -18
255 -105 71 -43 145 -84 164 -92 45 -19 97 -68 120 -114 11 -20 42 -144 70
-275 28 -131 56 -256 61 -277 17 -65 27 -67 436 -67 l358 0 -85 88 -85 87 90
-87 c86 -84 92 -88 135 -88 25 0 61 8 80 18 42 21 42 19 105 327 26 127 54
244 62 262 22 48 81 101 159 142 38 21 125 69 194 107 125 69 125 69 200 68
66 -1 103 -11 313 -83 130 -44 242 -81 248 -81 6 0 26 7 44 16 28 13 57 54
166 237 73 122 166 278 208 347 73 121 76 127 76 188 0 73 22 47 -230 271
-148 131 -199 186 -221 238 -11 24 -14 91 -14 274 0 286 -2 278 115 394 74 73
256 237 314 283 21 16 26 30 29 84 4 62 3 66 -53 163 -32 55 -63 107 -70 115
-7 8 -48 76 -90 150 -90 157 -175 294 -204 331 -37 48 -63 45 -278 -32 -220
-78 -296 -99 -364 -99 -66 0 -108 18 -255 105 -71 43 -145 84 -164 92 -45 19
-97 68 -120 114 -11 20 -42 144 -70 275 -71 331 -65 313 -105 330 -50 20 -834
20 -882 -1z m657 -942 c227 -36 472 -145 641 -284 25 -21 49 -35 53 -31 4 4 7
2 5 -3 -1 -6 26 -39 60 -75 223 -233 364 -529 388 -815 11 -119 -1 -350 -22
-450 -36 -173 -113 -350 -218 -505 -62 -91 -228 -259 -317 -322 -128 -90 -301
-174 -440 -212 -172 -48 -417 -58 -609 -25 -140 24 -178 35 -308 92 -116 50
-179 88 -276 161 -38 28 -74 51 -80 51 -7 0 -12 5 -12 11 0 5 -17 25 -38 44
-75 66 -207 242 -260 347 -108 212 -157 416 -157 648 0 473 222 888 619 1158
141 95 342 174 526 207 124 22 317 23 445 3z m1000 -606 c0 -6 -40 30 -90 79
-49 48 -90 90 -90 92 0 2 41 -34 90 -79 50 -45 90 -87 90 -92z m229 -220 c35
-37 62 -67 60 -67 -2 0 -54 50 -114 112 -61 62 -87 92 -60 67 28 -25 79 -75
114 -112z m300 -284 c2 -2 2 -5 0 -8 -3 -2 -45 37 -95 88 l-89 92 90 -85 c49
-47 91 -86 94 -87z m-2548 -1419 c13 -14 17 -23 9 -19 -13 5 -46 45 -37 45 2
0 14 -11 28 -26z m94 -94 c33 -33 57 -60 54 -60 -2 0 -31 27 -64 60 -33 33
-57 60 -54 60 2 0 31 -27 64 -60z m287 -305 c6 -11 6 -15 1 -10 -5 6 -58 62
-118 125 l-109 115 108 -105 c59 -58 112 -114 118 -125z m168 -172 c69 -70 98
-103 65 -73 -64 59 -201 200 -194 200 2 0 60 -57 129 -127z m280 -288 c47 -47
82 -85 80 -85 -3 0 -43 38 -90 85 -47 47 -82 85 -80 85 3 0 43 -38 90 -85z"/>
<path d="M2284 3466 c-162 -43 -283 -113 -404 -235 -122 -123 -197 -261 -237
-435 -23 -99 -23 -383 0 -482 65 -287 249 -509 522 -632 122 -55 188 -66 395
-65 157 0 197 3 265 22 283 76 518 294 616 570 75 211 66 521 -22 739 -97 243
-320 442 -574 513 -67 19 -111 23 -275 26 -180 3 -202 1 -286 -21z m385 -316
c181 -34 338 -155 422 -325 45 -93 60 -159 60 -270 0 -111 -15 -177 -60 -270
-217 -439 -838 -448 -1065 -15 -49 92 -69 177 -69 285 0 154 52 294 152 406
82 91 210 166 324 189 60 11 176 12 236 0z"/>
</g>
</svg>
